<svg xmlns="http://www.w3.org/2000/svg" viewBox="0 0 62.63 91.18"><defs><style>.cls-1{fill:#333;fill-opacity:0;}.cls-2{fill:#213065;}.cls-3{fill:#d22b27;}</style></defs><g id="Слой_2" data-name="Слой 2"><g id="Слой_1-2" data-name="Слой 1"><rect class="cls-1" width="62.63" height="91.18"/><path class="cls-2" d="M34.64,54.36l14.49-14.5,1.73,1.73L36.36,56.08Zm-5.42-1.5L44.37,37.71l1.73,1.73L31,54.59ZM24,51.13,39.39,35.77l1.72,1.73L25.75,52.86Zm-5.21-1.74L34.19,34l1.74,1.74L20.55,51.13ZM14.1,47.18,29,32.25,30.77,34,15.84,48.92ZM8.34,84.7l13-13,1.74,1.74-13,13ZM3.81,82.33l13-13,1.72,1.73-13,13ZM0,79.21,12.57,66.63l1.74,1.74L1.74,80.94ZM48.93,20.86l11-11,1.72,1.73-11,11.05ZM44.6,18.25,57.15,5.7l1.74,1.74L46.34,20Zm-20,11.69a6.22,6.22,0,0,1-1.71-4.47,8.38,8.38,0,0,1,2.85-6.7c1.89-1.59,4.76-2.48,8.65-2.48a18.83,18.83,0,0,1,6,.89l.81.25L54.11,4.52a43.51,43.51,0,0,0-4.61-2A42.6,42.6,0,0,0,42.13.66,47.82,47.82,0,0,0,34.21,0a35.58,35.58,0,0,0-13,2.23,29.33,29.33,0,0,0-9.67,6,25.25,25.25,0,0,0-5.94,8.51,25,25,0,0,0-2,9.79A28.36,28.36,0,0,0,5.24,37a21.76,21.76,0,0,0,4.5,7.1,24.32,24.32,0,0,0,2.54,2.22L26.84,31.69A12.25,12.25,0,0,1,24.59,29.94Z"/><path class="cls-3" d="M56.45,45.35a23.29,23.29,0,0,0-3.58-2.9L38.47,56.86a12.25,12.25,0,0,1,3,2.45,7.5,7.5,0,0,1,1.73,5.09q0,5.38-3.17,7.92a13.74,13.74,0,0,1-8.76,2.49,20.24,20.24,0,0,1-7.23-1.18c-.57-.22-1.12-.44-1.66-.68L9.51,85.88a45.31,45.31,0,0,0,4.45,2,49.17,49.17,0,0,0,8.22,2.46,43.3,43.3,0,0,0,8.5.85,37.44,37.44,0,0,0,13.54-2.29,28.77,28.77,0,0,0,10.05-6.34,27,27,0,0,0,6.21-9.4,31.11,31.11,0,0,0,2.14-11.56,24,24,0,0,0-1.71-9.51A21.32,21.32,0,0,0,56.45,45.35Z"/></g></g></svg>