<svg xmlns="http://www.w3.org/2000/svg" viewBox="0 0 70.14 97.21"><defs><style>.cls-1,.cls-3{fill:#213065;}.cls-1,.cls-2{stroke:#fff;stroke-miterlimit:10;stroke-width:6px;}.cls-2,.cls-4{fill:#d22b27;}</style></defs><g id="Слой_1" data-name="Слой 1"><g id="Слой_2" data-name="Слой 2"><g id="Слой_1-2" data-name="Слой 1-2"><path class="cls-1" d="M38.89,57.37l14.5-14.5,1.72,1.73L40.61,59.09Zm-5.42-1.5L48.62,40.72l1.73,1.73L35.2,57.6Zm-5.19-1.73L43.64,38.78l1.72,1.73L30,55.87ZM23.07,52.4,38.44,37l1.74,1.74L24.8,54.14Zm-4.72-2.17,14.94-15L35,37l-14.94,15ZM12.59,87.75l13-13,1.74,1.74-13,13ZM8.06,85.38l13-13,1.72,1.73-13,13ZM4.25,82.23,16.82,69.64l1.74,1.74L6,84ZM53.18,23.87l11-11L65.9,14.6l-11,11Zm-4.33-2.64L61.4,8.71l1.74,1.74L50.59,23Zm-20,11.69a6.22,6.22,0,0,1-1.71-4.47A8.4,8.4,0,0,1,30,21.75c1.88-1.52,4.71-2.45,8.64-2.45a19.35,19.35,0,0,1,6,.89l.81.25L58.36,7.53a43.93,43.93,0,0,0-4.61-2,43.29,43.29,0,0,0-7.37-1.88A48.73,48.73,0,0,0,38.46,3a35.83,35.83,0,0,0-13,2.23,29.41,29.41,0,0,0-9.67,6,25.64,25.64,0,0,0-5.94,8.51,25,25,0,0,0-2,9.79A28.49,28.49,0,0,0,9.5,40a21.49,21.49,0,0,0,4.5,7.1,22.09,22.09,0,0,0,2.53,2.22L31.09,34.7A12.25,12.25,0,0,1,28.84,33Z"/><path class="cls-2" d="M60.7,48.36a23.85,23.85,0,0,0-3.59-2.9L42.7,59.87a12,12,0,0,1,3,2.45,7.45,7.45,0,0,1,1.73,5.09c0,3.59-1,6.23-3.17,7.92a13.68,13.68,0,0,1-8.76,2.49,20.24,20.24,0,0,1-7.23-1.18c-.57-.22-1.12-.44-1.66-.68L13.76,88.89a44.2,44.2,0,0,0,4.45,2,49.46,49.46,0,0,0,8.22,2.46,42.62,42.62,0,0,0,8.5.85,37.19,37.19,0,0,0,13.54-2.29,28.48,28.48,0,0,0,10-6.34,26.87,26.87,0,0,0,6.23-9.42,31.07,31.07,0,0,0,2.14-11.56,24,24,0,0,0-1.71-9.51A21.23,21.23,0,0,0,60.7,48.36Z"/></g></g></g><g id="Слой_2-2" data-name="Слой 2"><g id="Слой_2-3" data-name="Слой 2"><g id="Слой_1-2-2" data-name="Слой 1-2"><path class="cls-3" d="M39.26,57.36l14.5-14.5,1.72,1.73L41,59.08Zm-5.42-1.5L49,40.71l1.73,1.73L35.57,57.59Zm-5.19-1.73L44,38.77l1.72,1.73L30.37,55.86Zm-5.21-1.74L38.81,37l1.74,1.74L25.17,54.13Zm-4.72-2.17,14.94-15L35.4,37l-14.94,15ZM13,87.74l13-13,1.74,1.74-13,13ZM8.43,85.37l13-13,1.72,1.73-13,13ZM4.62,82.22,17.19,69.63l1.74,1.74L6.36,83.94ZM53.55,23.86l11-11,1.72,1.73-11,11Zm-4.33-2.64L61.77,8.7l1.74,1.74L51,23Zm-20,11.69a6.18,6.18,0,0,1-1.71-4.47,8.38,8.38,0,0,1,2.85-6.7c1.88-1.52,4.71-2.45,8.64-2.45a18.81,18.81,0,0,1,6,.89l.81.25L58.73,7.52a45.83,45.83,0,0,0-4.61-2,41.72,41.72,0,0,0-7.37-1.88A47.82,47.82,0,0,0,38.83,3a35.55,35.55,0,0,0-13,2.23,29.31,29.31,0,0,0-9.67,6,25.35,25.35,0,0,0-5.94,8.51,25,25,0,0,0-2,9.79A28.12,28.12,0,0,0,9.87,40a21.59,21.59,0,0,0,4.5,7.1,23.23,23.23,0,0,0,2.53,2.22L31.46,34.69a11.92,11.92,0,0,1-2.25-1.75Z"/><path class="cls-4" d="M61.07,48.35a24.37,24.37,0,0,0-3.59-2.9L43.07,59.86a12.21,12.21,0,0,1,3,2.45A7.55,7.55,0,0,1,47.8,67.4q0,5.38-3.17,7.92a13.76,13.76,0,0,1-8.76,2.49,20.24,20.24,0,0,1-7.23-1.18c-.57-.22-1.12-.44-1.66-.68L14.13,88.88a44.42,44.42,0,0,0,4.45,2,48.9,48.9,0,0,0,8.22,2.46,43.3,43.3,0,0,0,8.5.85A37.48,37.48,0,0,0,48.84,91.9a28.66,28.66,0,0,0,10-6.34,27.1,27.1,0,0,0,6.23-9.42,31.27,31.27,0,0,0,2.14-11.56,24,24,0,0,0-1.71-9.51A21.41,21.41,0,0,0,61.07,48.35Z"/></g></g></g></svg>