<svg xmlns="http://www.w3.org/2000/svg" viewBox="0 0 431.33 91.18"><defs><style>.cls-1,.cls-4{fill:#333;}.cls-1{fill-opacity:0;}.cls-2{fill:#213065;}.cls-3{fill:#d22b27;}</style></defs><g id="Слой_2" data-name="Слой 2"><g id="Слой_1-2" data-name="Слой 1"><rect class="cls-1" width="62.63" height="91.18"/><path class="cls-2" d="M34.64,54.36l14.49-14.5,1.73,1.73L36.36,56.08Zm-5.42-1.5L44.37,37.71l1.73,1.73L31,54.59ZM24,51.13,39.39,35.77l1.72,1.73L25.75,52.86Zm-5.21-1.74L34.19,34l1.74,1.74L20.55,51.13ZM14.1,47.18,29,32.25,30.77,34,15.84,48.92ZM8.34,84.7l13-13,1.74,1.74-13,13ZM3.81,82.33l13-13,1.72,1.73-13,13ZM0,79.21,12.57,66.63l1.74,1.74L1.74,80.94ZM48.93,20.86l11-11,1.72,1.73-11,11.05ZM44.6,18.25,57.15,5.7l1.74,1.74L46.34,20Zm-20,11.69a6.22,6.22,0,0,1-1.71-4.47,8.38,8.38,0,0,1,2.85-6.7c1.89-1.59,4.76-2.48,8.65-2.48a18.83,18.83,0,0,1,6,.89l.81.25L54.11,4.52a43.51,43.51,0,0,0-4.61-2A42.6,42.6,0,0,0,42.13.66,47.82,47.82,0,0,0,34.21,0a35.58,35.58,0,0,0-13,2.23,29.33,29.33,0,0,0-9.67,6,25.25,25.25,0,0,0-5.94,8.51,25,25,0,0,0-2,9.79A28.36,28.36,0,0,0,5.24,37a21.76,21.76,0,0,0,4.5,7.1,24.32,24.32,0,0,0,2.54,2.22L26.84,31.69A12.25,12.25,0,0,1,24.59,29.94Z"/><path class="cls-3" d="M56.45,45.35a23.29,23.29,0,0,0-3.58-2.9L38.47,56.86a12.25,12.25,0,0,1,3,2.45,7.5,7.5,0,0,1,1.73,5.09q0,5.38-3.17,7.92a13.74,13.74,0,0,1-8.76,2.49,20.24,20.24,0,0,1-7.23-1.18c-.57-.22-1.12-.44-1.66-.68L9.51,85.88a45.31,45.31,0,0,0,4.45,2,49.17,49.17,0,0,0,8.22,2.46,43.3,43.3,0,0,0,8.5.85,37.44,37.44,0,0,0,13.54-2.29,28.77,28.77,0,0,0,10.05-6.34,27,27,0,0,0,6.21-9.4,31.11,31.11,0,0,0,2.14-11.56,24,24,0,0,0-1.71-9.51A21.32,21.32,0,0,0,56.45,45.35Z"/><path class="cls-4" d="M126.16,85.25H111.24l-2.5-7.13H107.6a16.07,16.07,0,0,1-6.91,6,23.77,23.77,0,0,1-10.38,2.11h0q-9.45,0-14.72-5.48t-5.26-15.5h0V28H90.09V59.28c0,3.73.54,6.56,1.6,8.48a5.53,5.53,0,0,0,5.24,2.89h0c3.4,0,5.82-1.34,7.28-4s2.18-7.21,2.18-13.58h0V28h19.77Z"/><path class="cls-4" d="M191.73,85.25H172V54q0-5.71-1.65-8.63A5.64,5.64,0,0,0,165,42.47h0a7.65,7.65,0,0,0-7.23,4q-2.24,4-2.23,13.7h0V85.25H135.8V28h14.92l2.47,7.08h1.17a15.77,15.77,0,0,1,7-6.07,24.91,24.91,0,0,1,10.28-2h0q9.51,0,14.79,5.51T191.73,48h0Z"/><path class="cls-4" d="M240.54,49,250.8,11.33h22.33l-24.2,73.92H225.4L201.3,11.33h22.45L233.8,48.8q3.15,12.5,3.44,17.39h0q.36-3.54,1.41-8.85C239.36,53.8,240,51,240.54,49Z"/><path class="cls-4" d="M338.51,56.49h0q0,14-7.57,21.92T309.8,86.27h0q-13.05,0-20.76-8t-7.72-21.73h0q0-14,7.57-21.76T310.09,27h0A30.26,30.26,0,0,1,325,30.56a24.54,24.54,0,0,1,10,10.28A33.26,33.26,0,0,1,338.51,56.49Zm-37.1,0h0q0,7.36,2,11.25A6.85,6.85,0,0,0,310,71.6h0a6.66,6.66,0,0,0,6.5-3.86q1.89-3.88,1.89-11.25h0q0-7.34-1.91-11.09t-6.58-3.73h0a6.81,6.81,0,0,0-6.52,3.71Q301.4,49.11,301.41,56.49Z"/><path class="cls-4" d="M367.09,28V85.25H347.33V28ZM346.82,13.71h0q0-4.44,2.47-6.63t8-2.15h0c3.67,0,6.36.73,8.05,2.2s2.53,3.68,2.53,6.58h0q0,8.7-10.58,8.7h0Q346.82,22.41,346.82,13.71Z"/><path class="cls-4" d="M396.18,86.27h0a17.12,17.12,0,0,1-10.69-3.49,22.33,22.33,0,0,1-7.08-10.26,45.72,45.72,0,0,1-2.5-15.84h0q0-13.95,5.63-21.83A17.87,17.87,0,0,1,396.94,27h0a17.84,17.84,0,0,1,8.44,1.92A18.53,18.53,0,0,1,412,35.36h.39a96.78,96.78,0,0,1-.94-13.46h0V6.58h19.91V85.25H416.41L412.17,78h-.75Q406.29,86.27,396.18,86.27Zm8.1-15.62h0c3.17,0,5.41-1,6.7-3s2-5.06,2.08-9.22h0V56.9q0-7.59-2.15-10.79t-6.84-3.23h0a6.7,6.7,0,0,0-6,3.66q-2.14,3.68-2.14,10.46h0q0,6.66,2.16,10.16A6.94,6.94,0,0,0,404.28,70.65Z"/></g></g></svg>